<svg xmlns="http://www.w3.org/2000/svg" viewBox="0 0 200 50"><defs><style>.a{fill:#fff;}</style></defs><title>Artboard 1</title><path class="a" d="M45,8.45,38.35,18.57H37.9L31.24,8.45V23.8H29.9V6.52h1.58L38.1,16.59,44.64,6.52h1.63V23.8H45Z"/><path class="a" d="M51.75,17.73a6.2,6.2,0,1,1,12.39,0,6.2,6.2,0,1,1-12.39,0Zm11.21,0a5,5,0,1,0-10,0,5,5,0,1,0,10,0Z"/><path class="a" d="M68,11.61h1.33L73.77,22.4l4.44-10.79h1.33L74.44,23.8H73.1Z"/><path class="a" d="M85.62,7.63a1,1,0,0,1-2,0A1,1,0,0,1,85.62,7.63ZM84,11.56V23.8h1.21V11.56Z"/><path class="a" d="M90.46,17.7a6.13,6.13,0,0,1,6.2-6.3c3.43,0,6.49,2.1,6,6.86h-11a4.8,4.8,0,0,0,5,4.52A5.74,5.74,0,0,0,101,20.94l.86.69A6.7,6.7,0,0,1,96.65,24,6,6,0,0,1,90.46,17.7Zm11.13-.49c0-3-2-4.69-4.94-4.69a4.88,4.88,0,0,0-5,4.69Z"/><path class="a" d="M123.36,21.63a9.11,9.11,0,0,1-6.57,2.57c-6.42,0-9.14-4.42-9.16-8.91s2.91-9.11,9.16-9.11a8.92,8.92,0,0,1,6.34,2.64L121,10.91a5.94,5.94,0,0,0-4.17-1.63,5.67,5.67,0,0,0-6,6c0,2.86,1.68,5.85,6,5.85a6.36,6.36,0,0,0,4.34-1.75Z"/><path class="a" d="M136.57,11.63h2.89V23.8h-2.84L136.47,22a4.62,4.62,0,0,1-4,2.15c-3.6,0-6.27-2.2-6.27-6.47s2.79-6.39,6.34-6.37a4.47,4.47,0,0,1,3.88,2Zm-7.31,6.07a3.49,3.49,0,0,0,3.6,3.7c4.74,0,4.74-7.38,0-7.38A3.47,3.47,0,0,0,129.26,17.7Z"/><path class="a" d="M147.26,11.63l.22,1.41a3.59,3.59,0,0,1,3.43-1.73A4.62,4.62,0,0,1,154,12.47l-1.36,2.62a3,3,0,0,0-2.17-.79,2.81,2.81,0,0,0-3,3.09V23.8h-3V11.63Z"/><path class="a" d="M162.66,8.2v3.46H166v2.59h-3.38v5.26a1.51,1.51,0,0,0,1.58,1.73,3.44,3.44,0,0,0,1.46-.37l.84,2.57A6.73,6.73,0,0,1,164,24c-2.64.1-4.37-1.41-4.37-4.44V14.25h-2.27V11.66h2.27V8.52Z"/><path class="a" d="M196.53,6.73S177.92,31.35,147.3,38.34c-25,5.72-36.35-7-82-8.52,0,0-42.31,7.52-62.4,17.91-1.48.77,15.66-4.84,15.66-4.84S38,36.13,57.84,33.81c35.62-4.18,69.4,10.52,69.4,10.52s30.15-4.06,45.37-11.58C189.08,24.62,196.53,6.73,196.53,6.73Z"/></svg>